<?xml version="1.0" encoding="utf-8"?>
<!-- Generator: Adobe Illustrator 21.1.0, SVG Export Plug-In . SVG Version: 6.00 Build 0)  -->
<svg version="1.1" id="Warstwa_1" xmlns="http://www.w3.org/2000/svg" xmlns:xlink="http://www.w3.org/1999/xlink" x="0px" y="0px"
	 viewBox="0 0 284.5 47" style="enable-background:new 0 0 284.5 47;" xml:space="preserve">
<style type="text/css">
	.st0{fill:#006442;}
	.st1{fill:#34495E;}
	.st2{fill:#9B59B6;}
	.st3{fill:#E74C3C;}
	.st4{fill:#4D8FAC;}
	.st5{fill:#2ECC71;}
	.st6{fill:#3498DB;}
	.st7{fill:#FFA631;}
	.st8{fill:#1ABC9C;}
	.st9{fill:#F99E35;}
</style>
<title>logo</title>
<path class="st0" d="M35.3,26.8H3.4c-0.4,0-0.7-0.3-0.7-0.7v-5.2c0-0.4,0.3-0.7,0.7-0.7h31.9V26.8z"/>
<path class="st1" d="M41.4,17.1H3c-0.4,0-0.7-0.3-0.7-0.7v-5.2c0-0.4,0.3-0.7,0.7-0.7h38.4V17.1z"/>
<path class="st2" d="M28.8,36.4H3.4c-0.4,0-0.7-0.3-0.7-0.7v-5.2c0-0.4,0.3-0.7,0.7-0.7h25.4V36.4z"/>
<path class="st3" d="M15.4,7.5H3c-0.4,0-0.7-0.3-0.7-0.7V1.7C2.4,1.3,2.7,1,3,1h12.4V7.5z"/>
<path class="st4" d="M48.3,46H3.4c-0.4,0-0.7-0.3-0.7-0.7v-5.2c0-0.4,0.3-0.7,0.7-0.7h44.9V46z"/>
<path class="st5" d="M53.7,7.5H15.4V1h38.4c0.4,0,0.7,0.3,0.7,0.7v5.2C54.4,7.2,54.1,7.5,53.7,7.5z"/>
<path class="st6" d="M53.7,17.1H41.4v-6.5h12.4c0.4,0,0.7,0.3,0.7,0.7v5.2C54.4,16.8,54.1,17.1,53.7,17.1z"/>
<path class="st7" d="M53.7,26.8H35.3v-6.5h18.5c0.4,0,0.7,0.3,0.7,0.7v5.2C54.4,26.5,54.1,26.8,53.7,26.8z"/>
<path class="st8" d="M53.7,36.4h-25v-6.5h25c0.4,0,0.7,0.3,0.7,0.7v5.2C54.4,36.1,54.1,36.4,53.7,36.4z"/>
<path class="st9" d="M53.7,46h-5.5v-6.5h5.5c0.4,0,0.7,0.3,0.7,0.7v5.2C54.4,45.7,54.1,46,53.7,46z"/>
<g>
	<path d="M103.2,16.5c1.4,1.4,2.1,3.6,2.1,6.4V34h-5.6V23.8c0-1.5-0.3-2.7-1-3.4c-0.6-0.8-1.5-1.1-2.7-1.1c-1.3,0-2.4,0.4-3.1,1.3
		c-0.8,0.9-1.2,2.1-1.2,3.8V34h-5.6V23.8c0-3-1.2-4.6-3.7-4.6c-1.3,0-2.3,0.4-3.1,1.3c-0.8,0.9-1.2,2.1-1.2,3.8V34h-5.6V14.7H78v2.2
		c0.7-0.8,1.6-1.4,2.6-1.9c1-0.4,2.2-0.6,3.4-0.6c1.4,0,2.6,0.3,3.7,0.8c1.1,0.5,2,1.3,2.7,2.4c0.8-1,1.8-1.8,3-2.3
		c1.2-0.6,2.5-0.8,4-0.8C99.8,14.4,101.7,15.1,103.2,16.5z"/>
	<path d="M129.2,14.7l-8.7,20.6c-0.9,2.2-2,3.8-3.3,4.7c-1.3,0.9-2.9,1.4-4.7,1.4c-1,0-2-0.2-3-0.5c-1-0.3-1.8-0.7-2.4-1.3l2.1-4
		c0.4,0.4,0.9,0.7,1.5,0.9c0.6,0.2,1.1,0.3,1.7,0.3c0.8,0,1.4-0.2,1.9-0.6c0.5-0.4,0.9-1,1.3-1.9l0.1-0.2l-8.4-19.5h5.8l5.4,13.1
		l5.5-13.1H129.2z"/>
	<path d="M148.6,10c1.6,0.7,2.9,1.8,3.8,3.2c0.9,1.4,1.3,3,1.3,4.9c0,1.8-0.4,3.5-1.3,4.8c-0.9,1.4-2.2,2.4-3.8,3.2
		c-1.6,0.7-3.6,1.1-5.8,1.1h-5.1V34h-5.8V8.8h10.9C145.1,8.8,147,9.2,148.6,10z M146.5,21.2c0.9-0.8,1.4-1.8,1.4-3.2
		c0-1.4-0.5-2.5-1.4-3.3s-2.2-1.1-4-1.1h-4.8v8.7h4.8C144.3,22.3,145.6,22,146.5,21.2z"/>
	<path d="M161.2,33.1c-1.6-0.9-2.9-2-3.8-3.5c-0.9-1.5-1.4-3.2-1.4-5.1s0.5-3.6,1.4-5.1c0.9-1.5,2.2-2.7,3.8-3.5
		c1.6-0.9,3.4-1.3,5.5-1.3c2,0,3.9,0.4,5.5,1.3c1.6,0.9,2.9,2,3.8,3.5c0.9,1.5,1.4,3.2,1.4,5.1s-0.5,3.6-1.4,5.1
		c-0.9,1.5-2.2,2.7-3.8,3.5c-1.6,0.9-3.4,1.3-5.5,1.3C164.7,34.3,162.8,33.9,161.2,33.1z M170.2,28.3c0.9-1,1.4-2.3,1.4-3.9
		s-0.5-2.9-1.4-3.9c-0.9-1-2.1-1.5-3.5-1.5s-2.6,0.5-3.6,1.5c-0.9,1-1.4,2.3-1.4,3.9s0.5,2.9,1.4,3.9c0.9,1,2.1,1.5,3.6,1.5
		S169.3,29.2,170.2,28.3z"/>
	<path d="M181.1,7.3h5.6V34h-5.6V7.3z"/>
	<path d="M192.2,11.1c-0.6-0.6-1-1.3-1-2.2c0-0.9,0.3-1.6,1-2.2c0.6-0.6,1.5-0.9,2.5-0.9c1,0,1.9,0.3,2.5,0.9c0.6,0.6,1,1.3,1,2.2
		c0,0.9-0.3,1.7-1,2.3c-0.6,0.6-1.5,0.9-2.5,0.9C193.7,12,192.8,11.7,192.2,11.1z M191.9,14.7h5.6V34h-5.6V14.7z"/>
	<path d="M215.2,33.1c-0.6,0.4-1.2,0.7-2,0.9c-0.8,0.2-1.7,0.3-2.5,0.3c-2.3,0-4.1-0.6-5.3-1.8c-1.3-1.2-1.9-2.9-1.9-5.2v-8h-3v-4.3
		h3v-4.7h5.6v4.7h4.8v4.3H209v7.9c0,0.8,0.2,1.4,0.6,1.9c0.4,0.4,1,0.7,1.8,0.7c0.9,0,1.6-0.2,2.3-0.7L215.2,33.1z"/>
	<path d="M218.7,11.1c-0.6-0.6-1-1.3-1-2.2c0-0.9,0.3-1.6,1-2.2c0.6-0.6,1.5-0.9,2.5-0.9c1,0,1.9,0.3,2.5,0.9c0.6,0.6,1,1.3,1,2.2
		c0,0.9-0.3,1.7-1,2.3c-0.6,0.6-1.5,0.9-2.5,0.9C220.2,12,219.3,11.7,218.7,11.1z M218.4,14.7h5.6V34h-5.6V14.7z"/>
	<path d="M233,33.1c-1.6-0.9-2.9-2-3.9-3.5c-0.9-1.5-1.4-3.2-1.4-5.1s0.5-3.6,1.4-5.1s2.2-2.7,3.9-3.5c1.6-0.9,3.5-1.3,5.6-1.3
		c2,0,3.8,0.4,5.3,1.3c1.5,0.9,2.6,2.1,3.3,3.7l-4.4,2.3c-1-1.8-2.5-2.7-4.4-2.7c-1.5,0-2.7,0.5-3.6,1.4c-1,1-1.4,2.3-1.4,3.9
		s0.5,3,1.4,3.9c1,1,2.2,1.4,3.6,1.4c1.9,0,3.4-0.9,4.4-2.7l4.4,2.4c-0.7,1.5-1.8,2.7-3.3,3.6s-3.3,1.3-5.3,1.3
		C236.5,34.3,234.7,33.9,233,33.1z"/>
	<path d="M252.3,33.7c-1.5-0.4-2.8-0.9-3.7-1.5l1.9-4c0.9,0.6,1.9,1,3.1,1.4c1.2,0.3,2.4,0.5,3.6,0.5c2.4,0,3.6-0.6,3.6-1.8
		c0-0.6-0.3-0.9-1-1.2c-0.6-0.2-1.6-0.4-3-0.6c-1.6-0.2-2.9-0.5-3.9-0.8c-1-0.3-1.9-0.9-2.7-1.7s-1.1-1.9-1.1-3.4
		c0-1.2,0.4-2.3,1.1-3.3c0.7-0.9,1.7-1.7,3.1-2.2s3-0.8,4.8-0.8c1.4,0,2.7,0.1,4.1,0.4c1.4,0.3,2.5,0.7,3.4,1.2l-1.9,4
		c-1.7-1-3.6-1.4-5.6-1.4c-1.2,0-2.1,0.2-2.7,0.5c-0.6,0.3-0.9,0.8-0.9,1.3c0,0.6,0.3,1,1,1.3c0.6,0.2,1.7,0.5,3.1,0.7
		c1.6,0.3,2.9,0.5,3.9,0.8s1.9,0.8,2.6,1.6s1.1,1.9,1.1,3.3c0,1.2-0.4,2.3-1.1,3.2c-0.7,0.9-1.8,1.7-3.1,2.2c-1.4,0.5-3,0.8-4.9,0.8
		C255.4,34.3,253.8,34.1,252.3,33.7z"/>
</g>
</svg>
